<svg xmlns="http://www.w3.org/2000/svg" viewBox="0 0 80 80" width="80" height="80"><defs><linearGradient id="gold" x1="0" y1="0" x2="0.8" y2="1"><stop stop-color="#f8d77f"/><stop offset="1" stop-color="#dea52f"/></linearGradient><linearGradient id="red" x1="0" y1="0" x2="0.8" y2="1"><stop stop-color="#ec7770"/><stop offset="1" stop-color="#bf4037"/></linearGradient><linearGradient id="green" x1="0" y1="0" x2="0.8" y2="1"><stop stop-color="#78a993"/><stop offset="1" stop-color="#3e7059"/></linearGradient><linearGradient id="paper" x1="0" y1="0" x2="0.8" y2="1"><stop stop-color="#ffffff"/><stop offset="1" stop-color="#e5ecea"/></linearGradient></defs><ellipse cx="40" cy="71" rx="24" ry="4" fill="#776440" opacity=".12"/><g transform="rotate(-6 40 40)"><circle cx="41" cy="40" r="26" fill="#b67b22"/><circle cx="38" cy="36" r="26" fill="url(#gold)"/><circle cx="38" cy="36" r="20" fill="url(#paper)"/><path d="M38 15v4m0 34v4M17 36h4m34 0h4" fill="none" stroke="#a7b8ba" stroke-width="2" stroke-linecap="round" stroke-linejoin="round"/><path d="M38 20l-8 24 8-6 8-9Z" fill="url(#red)"/><path d="M38 52l8-23-8 9-8 6Z" fill="url(#green)"/><circle cx="38" cy="36" r="3" fill="#ffe6a1"/></g></svg>
