<svg xmlns="http://www.w3.org/2000/svg" viewBox="0 0 80 80" width="80" height="80"><defs><linearGradient id="gold" x1="0" y1="0" x2="0.8" y2="1"><stop stop-color="#f8d77f"/><stop offset="1" stop-color="#dea52f"/></linearGradient><linearGradient id="red" x1="0" y1="0" x2="0.8" y2="1"><stop stop-color="#ec7770"/><stop offset="1" stop-color="#bf4037"/></linearGradient><linearGradient id="green" x1="0" y1="0" x2="0.8" y2="1"><stop stop-color="#78a993"/><stop offset="1" stop-color="#3e7059"/></linearGradient><linearGradient id="paper" x1="0" y1="0" x2="0.8" y2="1"><stop stop-color="#ffffff"/><stop offset="1" stop-color="#e5ecea"/></linearGradient></defs><ellipse cx="40" cy="71" rx="24" ry="4" fill="#776440" opacity=".12"/><g transform="rotate(-6 40 40)"><path d="M23 26v12q16 10 32 0V26Z" fill="#355f53"/><path d="M11 24l28-12 28 12-28 12Z" fill="#315346"/><path d="M11 21l28-12 28 12-28 12Z" fill="url(#green)"/><path d="M39 21l22 1v17" fill="none" stroke="#daa63a" stroke-width="2.5" stroke-linecap="round" stroke-linejoin="round"/><rect x="58" y="37" width="6" height="9" rx="2" fill="url(#gold)"/><rect x="16" y="51" width="49" height="16" rx="7" fill="#b3c3c1"/><rect x="13" y="48" width="49" height="16" rx="7" fill="url(#paper)"/><ellipse cx="61" cy="56" rx="4" ry="8" fill="#cedbd7"/><ellipse cx="61" cy="56" rx="2" ry="5" fill="#f7faf5"/><path d="M32 56l-2 15 7-4 6 4-2-15Z" fill="#b53c34"/><rect x="32" y="48" width="9" height="16" rx="2" fill="url(#red)"/><circle cx="36.5" cy="55" r="4" fill="url(#gold)"/></g></svg>
