<svg xmlns="http://www.w3.org/2000/svg" viewBox="0 0 80 80" width="80" height="80"><defs><linearGradient id="gold" x1="0" y1="0" x2="0.8" y2="1"><stop stop-color="#f8d77f"/><stop offset="1" stop-color="#dea52f"/></linearGradient><linearGradient id="red" x1="0" y1="0" x2="0.8" y2="1"><stop stop-color="#ec7770"/><stop offset="1" stop-color="#bf4037"/></linearGradient><linearGradient id="green" x1="0" y1="0" x2="0.8" y2="1"><stop stop-color="#78a993"/><stop offset="1" stop-color="#3e7059"/></linearGradient><linearGradient id="paper" x1="0" y1="0" x2="0.8" y2="1"><stop stop-color="#ffffff"/><stop offset="1" stop-color="#e5ecea"/></linearGradient></defs><ellipse cx="40" cy="71" rx="24" ry="4" fill="#776440" opacity=".12"/><g transform="rotate(-6 40 40)"><rect x="22" y="17" width="37" height="48" rx="5" fill="#bcc8cd"/><rect x="19" y="13" width="37" height="48" rx="5" fill="url(#paper)"/><rect x="25" y="21" width="16" height="4" rx="2" fill="url(#gold)"/><rect x="26" y="37" width="5" height="13" rx="1" fill="#cda657"/><rect x="35" y="31" width="5" height="19" rx="1" fill="url(#gold)"/><rect x="44" y="26" width="5" height="24" rx="1" fill="url(#green)"/><path d="M54 55l7-7 7 7-7 7Z" fill="url(#red)"/></g></svg>
